<svg width="6" height="12" viewBox="0 0 6 12" fill="none" xmlns="http://www.w3.org/2000/svg">
<path d="M6 6C6 6.23051 5.9233 6.42712 5.76401 6.60339L1.16224 11.7763C1.03835 11.9254 0.873158 12 0.684367 12C0.300886 12 1.01944e-06 11.661 9.8032e-07 11.2136C9.61354e-07 10.9966 0.0766973 10.8 0.20649 10.6508L4.35398 6L0.20649 1.34915C0.0766965 1.19322 8.71264e-08 0.996611 6.81601e-08 0.779662C2.96348e-08 0.338984 0.300885 4.98232e-07 0.684366 4.64708e-07C0.873157 4.48203e-07 1.03835 0.0745767 1.16224 0.223729L5.76401 5.39661C5.9233 5.57288 5.9941 5.76949 6 6Z" fill="white"/>
</svg>
