<svg width="6" height="12" viewBox="0 0 6 12" fill="none" xmlns="http://www.w3.org/2000/svg">
<path d="M1.04907e-06 6C1.08938e-06 5.76949 0.0766973 5.57288 0.235989 5.39661L4.83776 0.22373C4.96165 0.0745772 5.12685 8.96406e-07 5.31564 9.29415e-07C5.69912 9.96465e-07 6 0.338984 6 0.786442C6 1.00339 5.92331 1.2 5.79351 1.34915L1.64602 6L5.79351 10.6508C5.9233 10.8068 6 11.0034 6 11.2203C6 11.661 5.69911 12 5.31563 12C5.12684 12 4.96165 11.9254 4.83776 11.7763L0.235989 6.60339C0.0766971 6.42712 0.00590071 6.23051 1.04907e-06 6Z" fill="white"/>
</svg>
