<svg width="30" height="30" viewBox="0 0 30 30" fill="none" xmlns="http://www.w3.org/2000/svg">
<path fill-rule="evenodd" clip-rule="evenodd" d="M23.75 10C23.75 10.4142 23.4142 10.75 23 10.75H7C6.58579 10.75 6.25 10.4142 6.25 10C6.25 9.58579 6.58579 9.25 7 9.25H23C23.4142 9.25 23.75 9.58579 23.75 10Z" fill="white"/>
<path fill-rule="evenodd" clip-rule="evenodd" d="M23.75 15C23.75 15.4142 23.4142 15.75 23 15.75H7C6.58579 15.75 6.25 15.4142 6.25 15C6.25 14.5858 6.58579 14.25 7 14.25H23C23.4142 14.25 23.75 14.5858 23.75 15Z" fill="white"/>
<path fill-rule="evenodd" clip-rule="evenodd" d="M23.75 20C23.75 20.4142 23.4142 20.75 23 20.75H7C6.58579 20.75 6.25 20.4142 6.25 20C6.25 19.5858 6.58579 19.25 7 19.25H23C23.4142 19.25 23.75 19.5858 23.75 20Z" fill="white"/>
</svg>
