<svg width="16" height="16" viewBox="0 0 16 16" fill="none" xmlns="http://www.w3.org/2000/svg">
<path d="M3.31638 15.0755C3.59699 15.2926 3.9529 15.2179 4.37725 14.9126L7.99791 12.2733L11.6254 14.9126C12.0498 15.2179 12.3988 15.2926 12.6863 15.0755C12.9669 14.8651 13.0285 14.5191 12.8574 14.0238L11.4269 9.80358L15.0818 7.19817C15.5062 6.89963 15.6773 6.58752 15.5678 6.24828C15.4583 5.9226 15.1366 5.75976 14.6096 5.76655L10.1265 5.79369L8.76448 1.55311C8.60022 1.05103 8.35382 0.799988 7.99791 0.799988C7.64885 0.799988 7.40245 1.05103 7.23819 1.55311L5.87616 5.79369L1.39311 5.76655C0.866098 5.75976 0.544414 5.9226 0.434904 6.24828C0.31855 6.58752 0.496503 6.89963 0.920853 7.19817L4.57574 9.80358L3.14527 14.0238C2.97416 14.5191 3.03576 14.8651 3.31638 15.0755Z" fill="#9B9B9B"/>
</svg>
