<svg width="24" height="24" viewBox="0 0 24 24" fill="none" xmlns="http://www.w3.org/2000/svg">
<path d="M7.31638 19.0755C7.59699 19.2926 7.9529 19.2179 8.37725 18.9126L11.9979 16.2733L15.6254 18.9126C16.0498 19.2179 16.3988 19.2926 16.6863 19.0755C16.9669 18.8651 17.0285 18.5191 16.8574 18.0238L15.4269 13.8036L19.0818 11.1982C19.5062 10.8996 19.6773 10.5875 19.5678 10.2483C19.4583 9.9226 19.1366 9.75976 18.6096 9.76655L14.1265 9.79369L12.7645 5.55311C12.6002 5.05103 12.3538 4.79999 11.9979 4.79999C11.6489 4.79999 11.4025 5.05103 11.2382 5.55311L9.87616 9.79369L5.39311 9.76655C4.8661 9.75976 4.54441 9.9226 4.4349 10.2483C4.31855 10.5875 4.4965 10.8996 4.92085 11.1982L8.57574 13.8036L7.14527 18.0238C6.97416 18.5191 7.03576 18.8651 7.31638 19.0755Z" fill="#AC8E68"/>
</svg>
