<svg width="30" height="30" viewBox="0 0 30 30" fill="none" xmlns="http://www.w3.org/2000/svg">
<path d="M9.14544 23.8443C9.49621 24.1157 9.9411 24.0224 10.4715 23.6408L14.9974 20.3416L19.5317 23.6408C20.0622 24.0224 20.4985 24.1157 20.8578 23.8443C21.2086 23.5814 21.2856 23.1489 21.0717 22.5298L19.2836 17.2545L23.8522 13.9977C24.3827 13.6246 24.5966 13.2344 24.4597 12.8104C24.3228 12.4033 23.9207 12.1997 23.2619 12.2082L17.6581 12.2421L15.9556 6.94141C15.7502 6.3138 15.4422 6 14.9974 6C14.561 6 14.253 6.3138 14.0477 6.94141L12.3452 12.2421L6.74136 12.2082C6.08259 12.1997 5.68049 12.4033 5.5436 12.8104C5.39816 13.2344 5.6206 13.6246 6.15104 13.9977L10.7196 17.2545L8.93155 22.5298C8.71767 23.1489 8.79467 23.5814 9.14544 23.8443Z" fill="white"/>
</svg>
